<svg width="1043" height="592" xmlns="http://www.w3.org/2000/svg" xmlns:xlink="http://www.w3.org/1999/xlink" overflow="hidden"><defs><clipPath id="clip0"><rect x="68" y="38" width="1043" height="592"/></clipPath></defs><g clip-path="url(#clip0)" transform="translate(-68 -38)"><rect x="131.5" y="340.5" width="723" height="234" stroke="#000000" stroke-width="3" stroke-miterlimit="8" stroke-dasharray="12 9" fill="none"/><rect x="184.5" y="385.5" width="250" height="94" stroke="#000000" stroke-width="3" stroke-miterlimit="8" fill="#FFFFFF"/><text font-family="Calibri,Calibri_MSFontService,sans-serif" font-weight="400" font-size="24" transform="translate(211.43 440)">Sklearn<tspan font-size="24" x="77.3333" y="0">Transformer</tspan></text><rect x="578.5" y="422.5" width="250" height="94" stroke="#000000" stroke-width="3" stroke-miterlimit="8" fill="#FFFFFF"/><text font-family="Calibri,Calibri_MSFontService,sans-serif" font-weight="400" font-size="24" transform="translate(617.635 477)">Sklearn<tspan font-size="24" x="77.3333" y="0">Estimator</tspan></text><path d="M77.5001 431 177.452 431 177.452 434 77.5001 434ZM175.952 428 184.952 432.5 175.952 437Z"/><path d="M434.5 431 570.667 431 570.667 434 434.5 434ZM569.167 428 578.167 432.5 569.167 437Z"/><path d="M77.5001 502 571.067 502 571.067 505 77.5001 505ZM569.567 499 578.567 503.5 569.567 508Z"/><text font-family="Calibri,Calibri_MSFontService,sans-serif" font-weight="400" font-size="24" transform="translate(82.6734 426)">X<tspan font-size="24" x="0" y="99">y</tspan><tspan font-size="24" x="374.897" y="-11">X</tspan><tspan font-size="16" x="387.037" y="-6">transformed</tspan><tspan font-size="24" x="311.484" y="182">model.fit</tspan><tspan font-size="24" x="399.85" y="182">(X, y)</tspan></text><path d="M828.5 468 903.228 468 903.228 471 828.5 471ZM901.728 465 910.728 469.5 901.728 474Z"/><rect x="201.5" y="92.5001" width="213" height="88" stroke="#000000" stroke-width="3" stroke-miterlimit="8" fill="#FFFFFF"/><text font-family="Calibri,Calibri_MSFontService,sans-serif" font-weight="400" font-size="24" transform="translate(222.131 144)">Sklearn<tspan font-size="24" x="77.3333" y="0">Estimator</tspan><tspan font-size="24" x="7.84535" y="-76">model.fit</tspan><tspan font-size="24" x="96.212" y="-76">(X, y)</tspan></text><path d="M92.5001 99.0001 192.452 99.0002 192.452 102 92.5001 102ZM190.952 96.0002 199.952 100.5 190.952 105Z"/><path d="M92.5001 170 192.452 170 192.452 173 92.5001 173ZM190.952 167 199.952 171.5 190.952 176Z"/><text font-family="Calibri,Calibri_MSFontService,sans-serif" font-weight="400" font-size="24" transform="translate(98.0126 95)">X<tspan font-size="24" x="0" y="98">y</tspan></text><path d="M0.0190521-1.49988 70.6331-0.602909 70.595 2.39685-0.0190521 1.49988ZM69.1714-3.62172 78.1135 0.992231 69.0571 5.37756Z" transform="matrix(1 0 0 -1 414.5 136.492)"/><rect x="781.5" y="95.5001" width="213" height="87" stroke="#000000" stroke-width="3" stroke-miterlimit="8" fill="#FFFFFF"/><text font-family="Calibri,Calibri_MSFontService,sans-serif" font-weight="400" font-size="24" transform="translate(802.17 146)">Sklearn<tspan font-size="24" x="77.3334" y="0">Estimator</tspan><tspan font-size="24" x="7.8454" y="-75">model.estimate</tspan><tspan font-size="24" x="160.599" y="-75">(X, y)</tspan></text><path d="M673.5 138 773.452 138 773.452 141 673.5 141ZM771.952 135 780.952 139.5 771.952 144Z"/><text font-family="Calibri,Calibri_MSFontService,sans-serif" font-weight="400" font-size="24" transform="translate(678.813 133)">X</text><path d="M0.0190521-1.49988 70.6331-0.602909 70.595 2.39685-0.0190521 1.49988ZM69.1714-3.62172 78.1135 0.992231 69.0571 5.37756Z" transform="matrix(1 0 0 -1 994.5 139.492)"/><text font-family="Calibri,Calibri_MSFontService,sans-serif" font-weight="400" font-size="24" transform="translate(426.034 165)">Fitted Model<tspan font-size="24" x="615.551" y="-38">y</tspan><tspan font-size="16" x="626.384" y="-33">pre</tspan><tspan font-size="16" x="648.004" y="-33">d</tspan><tspan font-size="24" x="441.297" y="332">Fitted Model</tspan><tspan font-size="24" x="-258.414" y="164">Sklearn</tspan><tspan font-size="24" x="-181.081" y="164">Pipeline</tspan></text></g></svg>